custom-analysis
version=1
nRows=4
nColumns=129
inDegrees=no

This file contains tibia displacement and acting force.

Units are S.I. units (seconds, meters, Newtons, ...)
Angles are in degrees.

endheader
time	displacement	knee_angle	aACL_R_force	pACL_R_force	aPCL_R_force	pPCL_R_force	aMCL_R_force	aLCL_R_force	aPCL_L_force	pPCL_L_force	aMCL_L_force	aLCL_L_force	aACL_R_length	pACL_R_length	aPCL_R_length	pPCL_R_length	aMCL_R_length	aLCL_R_length	aPCL_L_length	pPCL_L_length	aMCL_L_length	aLCL_L_length	aACL_R_strain	pACL_R_strain	aPCL_R_strain	pPCL_R_strain	aMCL_R_strain	aLCL_R_strain	aPCL_L_strain	pPCL_L_strain	aMCL_L_strain	aLCL_L_strain	femur_lat_meniscii_l.femur_lat_l.force.X	femur_lat_meniscii_l.femur_lat_l.force.Y	femur_lat_meniscii_l.femur_lat_l.force.Z	femur_lat_meniscii_l.femur_lat_l.torque.X	femur_lat_meniscii_l.femur_lat_l.torque.Y	femur_lat_meniscii_l.femur_lat_l.torque.Z	femur_lat_meniscii_l.meniscus_lat_l.force.X	femur_lat_meniscii_l.meniscus_lat_l.force.Y	femur_lat_meniscii_l.meniscus_lat_l.force.Z	femur_lat_meniscii_l.meniscus_lat_l.torque.X	femur_lat_meniscii_l.meniscus_lat_l.torque.Y	femur_lat_meniscii_l.meniscus_lat_l.torque.Z	femur_med_meniscii_l.femur_med_l.force.X	femur_med_meniscii_l.femur_med_l.force.Y	femur_med_meniscii_l.femur_med_l.force.Z	femur_med_meniscii_l.femur_med_l.torque.X	femur_med_meniscii_l.femur_med_l.torque.Y	femur_med_meniscii_l.femur_med_l.torque.Z	femur_med_meniscii_l.meniscus_med_l.force.X	femur_med_meniscii_l.meniscus_med_l.force.Y	femur_med_meniscii_l.meniscus_med_l.force.Z	femur_med_meniscii_l.meniscus_med_l.torque.X	femur_med_meniscii_l.meniscus_med_l.torque.Y	femur_med_meniscii_l.meniscus_med_l.torque.Z	femur_lat_meniscii_r.femur_lat_r.force.X	femur_lat_meniscii_r.femur_lat_r.force.Y	femur_lat_meniscii_r.femur_lat_r.force.Z	femur_lat_meniscii_r.femur_lat_r.torque.X	femur_lat_meniscii_r.femur_lat_r.torque.Y	femur_lat_meniscii_r.femur_lat_r.torque.Z	femur_lat_meniscii_r.meniscus_lat_r.force.X	femur_lat_meniscii_r.meniscus_lat_r.force.Y	femur_lat_meniscii_r.meniscus_lat_r.force.Z	femur_lat_meniscii_r.meniscus_lat_r.torque.X	femur_lat_meniscii_r.meniscus_lat_r.torque.Y	femur_lat_meniscii_r.meniscus_lat_r.torque.Z	femur_med_meniscii_r.femur_med_r.force.X	femur_med_meniscii_r.femur_med_r.force.Y	femur_med_meniscii_r.femur_med_r.force.Z	femur_med_meniscii_r.femur_med_r.torque.X	femur_med_meniscii_r.femur_med_r.torque.Y	femur_med_meniscii_r.femur_med_r.torque.Z	femur_med_meniscii_r.meniscus_med_r.force.X	femur_med_meniscii_r.meniscus_med_r.force.Y	femur_med_meniscii_r.meniscus_med_r.force.Z	femur_med_meniscii_r.meniscus_med_r.torque.X	femur_med_meniscii_r.meniscus_med_r.torque.Y	femur_med_meniscii_r.meniscus_med_r.torque.Z	femur_med_tibia_l.tibia_upper_l.force.X	femur_med_tibia_l.tibia_upper_l.force.Y	femur_med_tibia_l.tibia_upper_l.force.Z	femur_med_tibia_l.tibia_upper_l.torque.X	femur_med_tibia_l.tibia_upper_l.torque.Y	femur_med_tibia_l.tibia_upper_l.torque.Z	femur_med_tibia_l.femur_med_l.force.X	femur_med_tibia_l.femur_med_l.force.Y	femur_med_tibia_l.femur_med_l.force.Z	femur_med_tibia_l.femur_med_l.torque.X	femur_med_tibia_l.femur_med_l.torque.Y	femur_med_tibia_l.femur_med_l.torque.Z	femur_lat_tibia_l.tibia_upper_l.force.X	femur_lat_tibia_l.tibia_upper_l.force.Y	femur_lat_tibia_l.tibia_upper_l.force.Z	femur_lat_tibia_l.tibia_upper_l.torque.X	femur_lat_tibia_l.tibia_upper_l.torque.Y	femur_lat_tibia_l.tibia_upper_l.torque.Z	femur_lat_tibia_l.femur_lat_l.force.X	femur_lat_tibia_l.femur_lat_l.force.Y	femur_lat_tibia_l.femur_lat_l.force.Z	femur_lat_tibia_l.femur_lat_l.torque.X	femur_lat_tibia_l.femur_lat_l.torque.Y	femur_lat_tibia_l.femur_lat_l.torque.Z	femur_med_tibia_r.tibia_upper_r.force.X	femur_med_tibia_r.tibia_upper_r.force.Y	femur_med_tibia_r.tibia_upper_r.force.Z	femur_med_tibia_r.tibia_upper_r.torque.X	femur_med_tibia_r.tibia_upper_r.torque.Y	femur_med_tibia_r.tibia_upper_r.torque.Z	femur_med_tibia_r.femur_med_r.force.X	femur_med_tibia_r.femur_med_r.force.Y	femur_med_tibia_r.femur_med_r.force.Z	femur_med_tibia_r.femur_med_r.torque.X	femur_med_tibia_r.femur_med_r.torque.Y	femur_med_tibia_r.femur_med_r.torque.Z	femur_lat_tibia_r.tibia_upper_r.force.X	femur_lat_tibia_r.tibia_upper_r.force.Y	femur_lat_tibia_r.tibia_upper_r.force.Z	femur_lat_tibia_r.tibia_upper_r.torque.X	femur_lat_tibia_r.tibia_upper_r.torque.Y	femur_lat_tibia_r.tibia_upper_r.torque.Z	femur_lat_tibia_r.femur_lat_r.force.X	femur_lat_tibia_r.femur_lat_r.force.Y	femur_lat_tibia_r.femur_lat_r.force.Z	femur_lat_tibia_r.femur_lat_r.torque.X	femur_lat_tibia_r.femur_lat_r.torque.Y	femur_lat_tibia_r.femur_lat_r.torque.Z
      0.37382044	      0.03462287	    101.71116278	      0.00000000	      0.00000000	   1330.99589940	    634.80654480	      0.00000000	      0.00000000	      0.00000000	      0.00000000	      0.00000001	      0.00000000	      0.02496966	      0.01908645	      0.03880481	      0.03512268	      0.05261063	      0.04595266	      0.01525851	      0.01651186	      0.06550154	      0.04489616	     -0.24346977	     -0.28134852	      0.32010243	      0.18306931	     -0.18688032	     -0.20032126	      0.00000079	     -0.32847694	      0.00000060	     -0.00000086	      2.76307435	     50.99597937	     -9.56042239	      5.21997485	     -0.02578839	      1.48581788	     -2.76307435	    -50.99597937	      9.56042239	     -1.74637766	      0.02558040	     -0.48301696	     -3.31599387	     20.97615968	     -3.40468921	      0.94473225	     -0.02138609	     -1.00501789	      3.31599387	    -20.97615968	      3.40468921	      0.28075727	      0.00368718	     -0.29758878	   2253.96722318	  -1408.58589912	    128.18891504	    -18.94320314	     51.57813150	    908.21116999	  -2253.96722318	   1408.58589912	   -128.18891504	    -39.64156457	    -66.60301331	    -43.20416446	     95.71828828	    -90.01370705	    -31.67560924	     11.21136067	     -1.55052154	     38.22026892	    -95.71828828	     90.01370705	     31.67560924	      1.07745719	      2.00404667	     -2.37435592	      0.00000000	      0.00000000	      0.00000000	      0.00000000	      0.00000000	      0.00000000	      0.00000000	      0.00000000	      0.00000000	      0.00000000	      0.00000000	      0.00000000	      0.00000000	      0.00000000	      0.00000000	      0.00000000	      0.00000000	      0.00000000	      0.00000000	      0.00000000	      0.00000000	      0.00000000	      0.00000000	      0.00000000	    -50.78430965	     -0.98394086	     22.93117193	      0.00437523	      1.24056604	      0.06369169	     50.78430965	      0.98394086	    -22.93117193	      9.22227647	     -0.81981342	     20.38808173	   -188.36168920	      1.23328344	    -57.45369816	     -0.02563181	     -7.37915779	     -0.06583520	    188.36168920	     -1.23328344	     57.45369816	    -23.08545012	      4.74901433	     75.77895480
      0.37414389	      0.03463699	    101.76769105	      0.00000000	      0.00000000	   1331.27301080	    635.06871267	      0.00000000	      0.00000000	      0.00000000	      0.00000000	      0.00000001	      0.00000000	      0.02496619	      0.01908746	      0.03880636	      0.03512434	      0.05260983	      0.04594894	      0.01525851	      0.01651186	      0.06550154	      0.04489616	     -0.24357479	     -0.28131053	      0.32015514	      0.18312545	     -0.18689271	     -0.20038601	      0.00000079	     -0.32847694	      0.00000060	     -0.00000086	      2.76307435	     50.99597937	     -9.56042239	      5.21997485	     -0.02578839	      1.48581788	     -2.76307435	    -50.99597937	      9.56042239	     -1.74637766	      0.02558040	     -0.48301696	     -3.31599387	     20.97615968	     -3.40468921	      0.94473225	     -0.02138609	     -1.00501789	      3.31599387	    -20.97615968	      3.40468921	      0.28075727	      0.00368718	     -0.29758878	   2249.05384508	  -1410.25527409	    130.92979956	    -20.00443640	     51.47226011	    906.21212125	  -2249.05384508	   1410.25527409	   -130.92979956	    -39.69131434	    -66.54891156	    -43.17688496	     93.15314689	    -88.65892964	    -31.31606272	     11.08977073	     -1.51056774	     37.20036945	    -93.15314689	     88.65892964	     31.31606272	      1.06218278	      1.96658230	     -2.34404165	      0.00000000	      0.00000000	      0.00000000	      0.00000000	      0.00000000	      0.00000000	      0.00000000	      0.00000000	      0.00000000	      0.00000000	      0.00000000	      0.00000000	      0.00000000	      0.00000000	      0.00000000	      0.00000000	      0.00000000	      0.00000000	      0.00000000	      0.00000000	      0.00000000	      0.00000000	      0.00000000	      0.00000000	    -50.23080235	     -0.90196112	     22.78412921	      0.00568438	      1.23050757	      0.06199346	     50.23080235	      0.90196112	    -22.78412921	      9.16199179	     -0.81116618	     20.16603260	   -188.04647188	      1.45224762	    -57.40935375	     -0.03404493	     -7.36854590	     -0.06649028	    188.04647188	     -1.45224762	     57.40935375	    -23.06172735	      4.74154412	     75.65109717
      0.37506758	      0.03467720	    101.92870899	      0.00000000	      0.00000000	   1332.04838565	    635.80097152	      0.00000000	      0.00000000	      0.00000000	      0.00000000	      0.00000001	      0.00000000	      0.02495640	      0.01909039	      0.03881069	      0.03512901	      0.05260753	      0.04593839	      0.01525851	      0.01651186	      0.06550154	      0.04489616	     -0.24387138	     -0.28120025	      0.32030269	      0.18328250	     -0.18692826	     -0.20056950	      0.00000079	     -0.32847694	      0.00000060	     -0.00000086	      2.76307435	     50.99597937	     -9.56042239	      5.21997485	     -0.02578839	      1.48581788	     -2.76307435	    -50.99597937	      9.56042239	     -1.74637766	      0.02558040	     -0.48301696	     -3.31599387	     20.97615968	     -3.40468921	      0.94473225	     -0.02138609	     -1.00501789	      3.31599387	    -20.97615968	      3.40468921	      0.28075727	      0.00368718	     -0.29758878	   2185.54072890	  -1407.13211250	    111.64065673	    -12.39876614	     50.02232896	    880.82822958	  -2185.54072890	   1407.13211250	   -111.64065673	    -39.52349643	    -64.20246997	    -43.09679250	     88.14189320	    -83.21743063	    -29.66754945	     10.51901772	     -1.42372288	     35.18949004	    -88.14189320	     83.21743063	     29.66754945	      0.99971061	      1.85695638	     -2.18272134	      0.00000000	      0.00000000	      0.00000000	      0.00000000	      0.00000000	      0.00000000	      0.00000000	      0.00000000	      0.00000000	      0.00000000	      0.00000000	      0.00000000	      0.00000000	      0.00000000	      0.00000000	      0.00000000	      0.00000000	      0.00000000	      0.00000000	      0.00000000	      0.00000000	      0.00000000	      0.00000000	      0.00000000	    -48.76977606	     -0.56788519	     22.22409288	      0.00974670	      1.19733022	      0.05305084	     48.76977606	      0.56788519	    -22.22409288	      8.93260980	     -0.78675313	     19.58104119	   -187.11881943	      2.11976766	    -57.10205511	     -0.05888303	     -7.32984343	     -0.07027707	    187.11881943	     -2.11976766	     57.10205511	    -22.92068864	      4.71728317	     75.27549151
      0.37536682	      0.03469019	    101.98075705	      0.00000000	      0.00000000	   1332.29468660	    636.03336590	      0.00000000	      0.00000000	      0.00000000	      0.00000000	      0.00000001	      0.00000000	      0.02495327	      0.01909135	      0.03881207	      0.03513049	      0.05260678	      0.04593500	      0.01525851	      0.01651186	      0.06550154	      0.04489616	     -0.24396644	     -0.28116396	      0.32034956	      0.18333235	     -0.18693985	     -0.20062851	      0.00000079	     -0.32847694	      0.00000060	     -0.00000086	      2.76307435	     50.99597937	     -9.56042239	      5.21997485	     -0.02578839	      1.48581788	     -2.76307435	    -50.99597937	      9.56042239	     -1.74637766	      0.02558040	     -0.48301696	     -3.31599387	     20.97615968	     -3.40468921	      0.94473225	     -0.02138609	     -1.00501789	      3.31599387	    -20.97615968	      3.40468921	      0.28075727	      0.00368718	     -0.29758878	   2180.29608909	  -1408.20206512	    116.49024049	    -14.30841332	     49.93429097	    878.70254845	  -2180.29608909	   1408.20206512	   -116.49024049	    -39.56987481	    -64.22693964	    -43.06444598	     86.72906895	    -81.61686889	    -29.24571302	     10.37589483	     -1.39918435	     34.62228840	    -86.72906895	     81.61686889	     29.24571302	      0.98196372	      1.82727293	     -2.13488599	      0.00000000	      0.00000000	      0.00000000	      0.00000000	      0.00000000	      0.00000000	      0.00000000	      0.00000000	      0.00000000	      0.00000000	      0.00000000	      0.00000000	      0.00000000	      0.00000000	      0.00000000	      0.00000000	      0.00000000	      0.00000000	      0.00000000	      0.00000000	      0.00000000	      0.00000000	      0.00000000	      0.00000000	    -48.29343836	     -0.52074140	     22.05026507	      0.01068331	      1.18686787	      0.05251807	     48.29343836	      0.52074140	    -22.05026507	      8.86202443	     -0.77889647	     19.38969775	   -186.79491755	      2.31574488	    -56.99212938	     -0.06641558	     -7.31623834	     -0.07072596	    186.79491755	     -2.31574488	     56.99212938	    -22.87122622	      4.70878445	     75.14419236
